<svg width="20" height="20" viewBox="0 0 20 20" fill="none" xmlns="http://www.w3.org/2000/svg">
<g id="&#240;&#159;&#166;&#134; icon &#34;music filter&#34;">
<g id="Group">
<path id="Vector" d="M19.3021 1.46191H0.697668C0.316276 1.46191 0 1.13054 0 0.730954C0 0.331366 0.316276 0 0.697668 0H19.3021C19.6835 0 19.9998 0.331366 19.9998 0.730954C19.9998 1.13054 19.6835 1.46191 19.3021 1.46191Z" fill="#C6C7C8"/>
<path id="Vector_2" d="M9.06968 7.30953H0.697668C0.316276 7.30953 0 6.97817 0 6.57858C0 6.17899 0.316276 5.84763 0.697668 5.84763H9.06968C9.45108 5.84763 9.76735 6.17899 9.76735 6.57858C9.76735 6.97817 9.45108 7.30953 9.06968 7.30953Z" fill="#C6C7C8"/>
<path id="Vector_3" d="M6.27901 13.1572H0.697668C0.316276 13.1572 0 12.8258 0 12.4262C0 12.0266 0.316276 11.6953 0.697668 11.6953H6.27901C6.6604 11.6953 6.97668 12.0266 6.97668 12.4262C6.97668 12.8258 6.6604 13.1572 6.27901 13.1572Z" fill="#C6C7C8"/>
<path id="Vector_4" d="M4.41856 19.0048H0.697668C0.316276 19.0048 0 18.6734 0 18.2738C0 17.8742 0.316276 17.5429 0.697668 17.5429H4.41856C4.79996 17.5429 5.11623 17.8742 5.11623 18.2738C5.11623 18.6734 4.79996 19.0048 4.41856 19.0048Z" fill="#C6C7C8"/>
<path id="Vector_5" d="M19.1721 5.2904C18.6233 4.85182 17.8698 4.76412 16.9861 5.01752L12.9396 6.16754C11.8512 6.47941 11.1815 7.4053 11.1815 8.57486V11.0601V14.6467C10.7908 14.4127 10.335 14.2666 9.85125 14.2666C8.35359 14.2666 7.12566 15.5433 7.12566 17.1221C7.12566 18.6913 8.34429 19.9777 9.85125 19.9777C11.3582 19.9777 12.5768 18.701 12.5768 17.1221V11.6156L18.6047 9.89058V13.2335C18.214 12.9996 17.7582 12.8534 17.2744 12.8534C15.7768 12.8534 14.5489 14.1301 14.5489 15.709C14.5489 17.2781 15.7675 18.5646 17.2744 18.5646C18.7814 18.5646 20 17.2878 20 15.709V8.93547V7.42478C20 6.44043 19.7209 5.71922 19.1721 5.2904ZM9.85125 18.5158C9.11637 18.5158 8.52103 17.8921 8.52103 17.1221C8.52103 16.3522 9.11637 15.7285 9.85125 15.7285C10.5861 15.7285 11.1815 16.3522 11.1815 17.1221C11.1815 17.8921 10.5861 18.5158 9.85125 18.5158ZM17.2744 17.1027C16.5396 17.1027 15.9442 16.4789 15.9442 15.709C15.9442 14.939 16.5396 14.3153 17.2744 14.3153C18.0093 14.3153 18.6047 14.939 18.6047 15.709C18.6047 16.4789 18.0093 17.1027 17.2744 17.1027Z" fill="#C6C7C8"/>
</g>
</g>
</svg>
