<svg width="24" height="24" viewBox="0 0 24 24" fill="none" xmlns="http://www.w3.org/2000/svg">
<path id="Vector" d="M21.6384 5.77552L14.7333 0.944346C12.8511 -0.374338 9.96202 -0.30241 8.15186 1.10019L2.14586 5.78751C0.947054 6.72258 0 8.64066 0 10.1511V18.4228C0 21.4798 2.48152 23.9733 5.53847 23.9733H18.4615C21.5185 23.9733 24 21.4918 24 18.4348V10.3069C24 8.68861 22.957 6.6986 21.6384 5.77552ZM12.8991 19.1781C12.8991 19.6696 12.4915 20.0772 12 20.0772C11.5085 20.0772 11.1009 19.6696 11.1009 19.1781V15.5817C11.1009 15.0902 11.5085 14.6826 12 14.6826C12.4915 14.6826 12.8991 15.0902 12.8991 15.5817V19.1781Z" fill="#D9D9D9"/>
</svg>
