<svg width="24" height="24" viewBox="0 0 24 24" fill="none" xmlns="http://www.w3.org/2000/svg">
<path d="M19.8211 7.78902C22.1289 7.78902 23.9999 6.04539 23.9999 3.89451C23.9999 1.74363 22.1289 0 19.8211 0C17.5132 0 15.6423 1.74363 15.6423 3.89451C15.6423 6.04539 17.5132 7.78902 19.8211 7.78902Z" fill="#D9D9D9"/>
<path d="M4.1788 7.78902C6.48668 7.78902 8.3576 6.04539 8.3576 3.89451C8.3576 1.74363 6.48668 0 4.1788 0C1.87092 0 0 1.74363 0 3.89451C0 6.04539 1.87092 7.78902 4.1788 7.78902Z" fill="#D9D9D9"/>
<path d="M19.8211 23.9733C22.1289 23.9733 23.9999 22.2298 23.9999 20.0788C23.9999 17.9279 22.1289 16.1843 19.8211 16.1843C17.5132 16.1843 15.6423 17.9279 15.6423 20.0788C15.6423 22.2298 17.5132 23.9733 19.8211 23.9733Z" fill="#D9D9D9"/>
<path d="M4.1788 23.9733C6.48668 23.9733 8.3576 22.2298 8.3576 20.0788C8.3576 17.9279 6.48668 16.1843 4.1788 16.1843C1.87092 16.1843 0 17.9279 0 20.0788C0 22.2298 1.87092 23.9733 4.1788 23.9733Z" fill="#D9D9D9"/>
</svg>
