<svg width="28" height="27" viewBox="0 0 28 27" fill="none" xmlns="http://www.w3.org/2000/svg">
<g id="&#240;&#159;&#166;&#134; icon &#34;medal star&#34;">
<g id="Group">
<path id="Vector" d="M22.3826 10.4547C22.3826 12.206 21.8677 13.8124 20.9815 15.1531C19.6882 17.0856 17.6404 18.4504 15.2573 18.8007C14.8502 18.8731 14.431 18.9094 13.9999 18.9094C13.5688 18.9094 13.1497 18.8731 12.7425 18.8007C10.3594 18.4504 8.31164 17.0856 7.0183 15.1531C6.13213 13.8124 5.61719 12.206 5.61719 10.4547C5.61719 5.78046 9.36546 2 13.9999 2C18.6344 2 22.3826 5.78046 22.3826 10.4547Z" stroke="#D9D9D9" stroke-width="2.01424" stroke-linecap="round" stroke-linejoin="round"/>
<path id="Vector_2" d="M25.0772 21.8927L23.1013 22.3637C22.6582 22.4724 22.3109 22.8106 22.2151 23.2575L21.796 25.033C21.5684 25.9992 20.3469 26.2891 19.7123 25.5282L14 18.9094L8.28775 25.5403C7.65306 26.3012 6.43157 26.0113 6.20404 25.0451L5.7849 23.2696C5.67713 22.8227 5.32984 22.4724 4.89873 22.3758L2.9228 21.9048C2.01268 21.6874 1.68934 20.5399 2.34799 19.8756L7.01836 15.1652C8.3117 17.0977 10.3595 18.4625 12.7426 18.8128C13.1498 18.8852 13.5689 18.9215 14 18.9215C14.4311 18.9215 14.8503 18.8852 15.2574 18.8128C17.6405 18.4625 19.6883 17.0977 20.9816 15.1652L25.652 19.8756C26.3107 20.5279 25.9873 21.6753 25.0772 21.8927Z" stroke="#D9D9D9" stroke-width="2.01424" stroke-linecap="round" stroke-linejoin="round"/>
<path id="Vector_3" d="M14.6945 6.80705L15.401 8.23225C15.4968 8.4255 15.7483 8.61877 15.9759 8.655L17.2572 8.87239C18.0715 9.00525 18.2631 9.60917 17.6764 10.201L16.6824 11.2035C16.5147 11.3726 16.4189 11.6987 16.4788 11.9403L16.7662 13.1843C16.9938 14.1626 16.4788 14.5491 15.6166 14.0298L14.4191 13.3172C14.2035 13.1843 13.8443 13.1843 13.6287 13.3172L12.4312 14.0298C11.5689 14.5371 11.054 14.1626 11.2815 13.1843L11.5689 11.9403C11.6168 11.7108 11.533 11.3726 11.3653 11.2035L10.3714 10.201C9.78458 9.60917 9.97619 9.01733 10.7905 8.87239L12.0719 8.655C12.2875 8.61877 12.5389 8.4255 12.6347 8.23225L13.3413 6.80705C13.6886 6.03404 14.3113 6.03404 14.6945 6.80705Z" stroke="#D9D9D9" stroke-width="2.01424" stroke-linecap="round" stroke-linejoin="round"/>
</g>
</g>
</svg>
