<svg width="24" height="23" viewBox="0 0 24 23" fill="none" xmlns="http://www.w3.org/2000/svg">
<g id="&#240;&#159;&#166;&#134; icon &#34;medal star&#34;">
<g id="Group">
<path id="Vector" d="M18.9855 9.04558C18.9855 10.505 18.5564 11.8437 17.8179 12.9609C16.7401 14.5713 15.0337 15.7087 13.0477 16.0006C12.7084 16.061 12.3592 16.0912 11.9999 16.0912C11.6406 16.0912 11.2914 16.061 10.9521 16.0006C8.96615 15.7087 7.25967 14.5713 6.18189 12.9609C5.44341 11.8437 5.0143 10.505 5.0143 9.04558C5.0143 5.15038 8.13786 2 11.9999 2C15.8619 2 18.9855 5.15038 18.9855 9.04558Z" stroke="#C6C7C8" stroke-width="2.01424" stroke-linecap="round" stroke-linejoin="round"/>
<path id="Vector_2" d="M21.231 18.5773L19.5844 18.9698C19.2152 19.0604 18.9257 19.3422 18.8459 19.7146L18.4966 21.1942C18.307 21.9994 17.2891 22.241 16.7602 21.6069L12 16.0912L7.23979 21.6169C6.71088 22.251 5.69298 22.0095 5.50337 21.2043L5.15409 19.7247C5.06427 19.3523 4.77487 19.0604 4.41561 18.9799L2.769 18.5873C2.01056 18.4062 1.74112 17.45 2.28999 16.8964L6.18197 12.971C7.25975 14.5814 8.96623 15.7188 10.9522 16.0107C11.2915 16.0711 11.6408 16.1013 12 16.1013C12.3593 16.1013 12.7086 16.0711 13.0479 16.0107C15.0338 15.7188 16.7403 14.5814 17.818 12.971L21.71 16.8964C22.2589 17.4399 21.9894 18.3961 21.231 18.5773Z" stroke="#C6C7C8" stroke-width="2.01424" stroke-linecap="round" stroke-linejoin="round"/>
<path id="Vector_3" d="M12.5787 6.00592L13.1675 7.19359C13.2473 7.35464 13.4569 7.51569 13.6465 7.54588L14.7143 7.72705C15.3929 7.83776 15.5526 8.34103 15.0636 8.83422L14.2353 9.6696C14.0956 9.81051 14.0157 10.0823 14.0656 10.2836L14.3052 11.3203C14.4948 12.1356 14.0656 12.4577 13.3471 12.0249L12.3492 11.431C12.1696 11.3203 11.8702 11.3203 11.6905 11.431L10.6926 12.0249C9.97405 12.4476 9.54493 12.1356 9.73454 11.3203L9.97405 10.2836C10.014 10.0924 9.94411 9.81051 9.80439 9.6696L8.9761 8.83422C8.48711 8.34103 8.64678 7.84783 9.32538 7.72705L10.3932 7.54588C10.5728 7.51569 10.7824 7.35464 10.8622 7.19359L11.451 6.00592C11.7404 5.36175 12.2594 5.36175 12.5787 6.00592Z" stroke="#C6C7C8" stroke-width="2.01424" stroke-linecap="round" stroke-linejoin="round"/>
</g>
</g>
</svg>
