<svg width="24" height="24" viewBox="0 0 24 24" fill="none" xmlns="http://www.w3.org/2000/svg">
<g id="&#240;&#159;&#166;&#134; icon &#34;music filter&#34;">
<g id="Group">
<path id="Vector" d="M23.1626 1.75429H0.837201C0.379531 1.75429 0 1.35665 0 0.877144C0 0.397639 0.379531 0 0.837201 0H23.1626C23.6202 0 23.9998 0.397639 23.9998 0.877144C23.9998 1.35665 23.6202 1.75429 23.1626 1.75429Z" fill="#D9D9D9"/>
<path id="Vector_2" d="M10.8836 8.7715H0.837202C0.379531 8.7715 0 8.37386 0 7.89436C0 7.41485 0.379531 7.01721 0.837202 7.01721H10.8836C11.3413 7.01721 11.7208 7.41485 11.7208 7.89436C11.7208 8.37386 11.3413 8.7715 10.8836 8.7715Z" fill="#D9D9D9"/>
<path id="Vector_3" d="M7.53481 15.7886H0.837201C0.379531 15.7886 0 15.391 0 14.9114C0 14.4319 0.379531 14.0343 0.837201 14.0343H7.53481C7.99248 14.0343 8.37201 14.4319 8.37201 14.9114C8.37201 15.391 7.99248 15.7886 7.53481 15.7886Z" fill="#D9D9D9"/>
<path id="Vector_4" d="M5.30228 22.8058H0.837201C0.379531 22.8058 0 22.4082 0 21.9287C0 21.4492 0.379531 21.0515 0.837201 21.0515H5.30228C5.75995 21.0515 6.13948 21.4492 6.13948 21.9287C6.13948 22.4082 5.75995 22.8058 5.30228 22.8058Z" fill="#D9D9D9"/>
<path id="Vector_5" d="M23.0065 6.34845C22.3479 5.82216 21.4437 5.71692 20.3833 6.021L15.5275 7.40102C14.2215 7.77527 13.4178 8.88633 13.4178 10.2898V13.2721V17.576C12.9489 17.2953 12.402 17.1198 11.8215 17.1198C10.0243 17.1198 8.55078 18.6519 8.55078 20.5466C8.55078 22.4295 10.0131 23.9733 11.8215 23.9733C13.6298 23.9733 15.0922 22.4412 15.0922 20.5466V13.9387L22.3256 11.8687V15.8801C21.8567 15.5995 21.3098 15.424 20.7293 15.424C18.9321 15.424 17.4586 16.9561 17.4586 18.8507C17.4586 20.7337 18.921 22.2775 20.7293 22.2775C22.5377 22.2775 24 20.7454 24 18.8507V10.7225V8.90971C24 7.72849 23.6651 6.86304 23.0065 6.34845ZM11.8215 22.219C10.9396 22.219 10.2252 21.4705 10.2252 20.5466C10.2252 19.6226 10.9396 18.8741 11.8215 18.8741C12.7033 18.8741 13.4178 19.6226 13.4178 20.5466C13.4178 21.4705 12.7033 22.219 11.8215 22.219ZM20.7293 20.5232C19.8475 20.5232 19.1331 19.7747 19.1331 18.8507C19.1331 17.9268 19.8475 17.1783 20.7293 17.1783C21.6112 17.1783 22.3256 17.9268 22.3256 18.8507C22.3256 19.7747 21.6112 20.5232 20.7293 20.5232Z" fill="#D9D9D9"/>
</g>
</g>
</svg>
