<svg width="26" height="26" viewBox="0 0 26 26" fill="none" xmlns="http://www.w3.org/2000/svg">
<g id="Group">
<g id="Group_2">
<path id="Path" d="M12.997 18.5023C12.7219 18.5023 12.4968 18.7274 12.4998 19.0025C12.4998 19.2776 12.7249 19.5027 13 19.5027C13.2751 19.5027 13.5002 19.2776 13.5002 19.0025C13.5002 18.7274 13.2751 18.5023 12.997 18.5023" stroke="#212226" stroke-width="1.5" stroke-linecap="round" stroke-linejoin="round"/>
<path id="Path_2" d="M12.997 12.4998C12.7219 12.4998 12.4968 12.7249 12.4998 13C12.4998 13.2751 12.7249 13.5002 13 13.5002C13.2751 13.5002 13.5002 13.2751 13.5002 13C13.5002 12.7249 13.2751 12.4998 12.997 12.4998" stroke="#212226" stroke-width="1.5" stroke-linecap="round" stroke-linejoin="round"/>
<path id="Path_3" d="M12.997 6.49728C12.7219 6.49728 12.4968 6.72238 12.4998 6.99749C12.4998 7.27261 12.7249 7.4977 13 7.4977C13.2751 7.4977 13.5002 7.27261 13.5002 6.99749C13.5002 6.72238 13.2751 6.49728 12.997 6.49728" stroke="#212226" stroke-width="1.5" stroke-linecap="round" stroke-linejoin="round"/>
</g>
</g>
</svg>
