<svg width="20" height="20" viewBox="0 0 20 20" fill="none" xmlns="http://www.w3.org/2000/svg">
<g id="&#240;&#159;&#166;&#134; icon &#34;home 2&#34;">
<path id="Vector" d="M18.032 4.81293L12.2777 0.786955C10.7093 -0.311948 8.30168 -0.252008 6.79322 0.916825L1.78821 4.82292C0.789212 5.60215 0 7.20055 0 8.45924V15.3524C0 17.8998 2.06794 19.9777 4.61539 19.9777H15.3846C17.9321 19.9777 20 17.9098 20 15.3624V8.58911C20 7.24051 19.1309 5.58217 18.032 4.81293ZM10.7492 15.9817C10.7492 16.3913 10.4096 16.731 9.99999 16.731C9.59039 16.731 9.25073 16.3913 9.25073 15.9817V12.9847C9.25073 12.5751 9.59039 12.2355 9.99999 12.2355C10.4096 12.2355 10.7492 12.5751 10.7492 12.9847V15.9817Z" fill="#C6C7C8"/>
</g>
</svg>
