<svg width="24" height="24" viewBox="0 0 24 24" fill="none" xmlns="http://www.w3.org/2000/svg">
<g id="Interface, Essential/dots">
<g id="Group">
<g id="Group_2">
<path id="Path" d="M11.997 17.5023C11.7219 17.5023 11.4968 17.7274 11.4998 18.0025C11.4998 18.2776 11.7249 18.5027 12 18.5027C12.2751 18.5027 12.5002 18.2776 12.5002 18.0025C12.5002 17.7274 12.2751 17.5023 11.997 17.5023" stroke="white" stroke-width="1.5" stroke-linecap="round" stroke-linejoin="round"/>
<path id="Path_2" d="M11.997 11.4998C11.7219 11.4998 11.4968 11.7249 11.4998 12C11.4998 12.2751 11.7249 12.5002 12 12.5002C12.2751 12.5002 12.5002 12.2751 12.5002 12C12.5002 11.7249 12.2751 11.4998 11.997 11.4998" stroke="white" stroke-width="1.5" stroke-linecap="round" stroke-linejoin="round"/>
<path id="Path_3" d="M11.997 5.49728C11.7219 5.49728 11.4968 5.72238 11.4998 5.99749C11.4998 6.27261 11.7249 6.4977 12 6.4977C12.2751 6.4977 12.5002 6.27261 12.5002 5.99749C12.5002 5.72238 12.2751 5.49728 11.997 5.49728" stroke="white" stroke-width="1.5" stroke-linecap="round" stroke-linejoin="round"/>
</g>
</g>
</g>
</svg>
