<svg width="27" height="27" viewBox="0 0 27 27" fill="none" xmlns="http://www.w3.org/2000/svg">
<g id="&#240;&#159;&#166;&#134; icon &#34;logout&#34;">
<g id="Group">
<path id="Vector" d="M17.3475 26.2899H17.1826C11.551 26.2899 8.83666 24.0702 8.36735 19.0982C8.31662 18.5781 8.69713 18.1088 9.22985 18.0581C9.73721 18.0074 10.2192 18.4005 10.2699 18.9206C10.6378 22.9033 12.515 24.3873 17.1953 24.3873H17.3602C22.5225 24.3873 24.349 22.5608 24.349 17.3985V9.12865C24.349 3.96633 22.5225 2.13986 17.3602 2.13986H17.1953C12.4896 2.13986 10.6124 3.64924 10.2699 7.70806C10.2065 8.2281 9.76257 8.6213 9.22985 8.57056C8.69713 8.53251 8.31662 8.06321 8.35467 7.54317C8.78592 2.49501 11.5129 0.237289 17.1826 0.237289H17.3475C23.5753 0.237289 26.2389 2.90089 26.2389 9.12865V17.3985C26.2389 23.6263 23.5753 26.2899 17.3475 26.2899Z" fill="#292D32"/>
<path id="Vector_2" d="M17.0413 14.2149H2.60717C2.08713 14.2149 1.65588 13.7836 1.65588 13.2636C1.65588 12.7436 2.08713 12.3123 2.60717 12.3123H17.0413C17.5613 12.3123 17.9926 12.7436 17.9926 13.2636C17.9926 13.7836 17.5613 14.2149 17.0413 14.2149Z" fill="#292D32"/>
<path id="Vector_3" d="M5.43609 18.4641C5.1951 18.4641 4.9541 18.3753 4.76385 18.185L0.514765 13.936C0.146934 13.5681 0.146934 12.9593 0.514765 12.5915L4.76385 8.34239C5.13168 7.97456 5.7405 7.97456 6.10833 8.34239C6.47616 8.71022 6.47616 9.31904 6.10833 9.68687L2.53149 13.2637L6.10833 16.8406C6.47616 17.2084 6.47616 17.8172 6.10833 18.185C5.93076 18.3753 5.67708 18.4641 5.43609 18.4641Z" fill="#292D32"/>
</g>
</g>
</svg>
