<svg width="20" height="20" viewBox="0 0 20 20" fill="none" xmlns="http://www.w3.org/2000/svg">
<g id="&#240;&#159;&#166;&#134; icon &#34;menu&#34;">
<g id="Group">
<path id="Vector" d="M16.5176 6.49085C18.4408 6.49085 20 5.03783 20 3.24542C20 1.45303 18.4408 0 16.5176 0C14.5944 0 13.0353 1.45303 13.0353 3.24542C13.0353 5.03783 14.5944 6.49085 16.5176 6.49085Z" fill="#C6C7C8"/>
<path id="Vector_2" d="M3.48233 6.49085C5.40557 6.49085 6.96467 5.03783 6.96467 3.24542C6.96467 1.45303 5.40557 0 3.48233 0C1.5591 0 0 1.45303 0 3.24542C0 5.03783 1.5591 6.49085 3.48233 6.49085Z" fill="#C6C7C8"/>
<path id="Vector_3" d="M16.5176 19.9778C18.4408 19.9778 20 18.5248 20 16.7323C20 14.9399 18.4408 13.4869 16.5176 13.4869C14.5944 13.4869 13.0353 14.9399 13.0353 16.7323C13.0353 18.5248 14.5944 19.9778 16.5176 19.9778Z" fill="#C6C7C8"/>
<path id="Vector_4" d="M3.48233 19.9778C5.40557 19.9778 6.96467 18.5248 6.96467 16.7323C6.96467 14.9399 5.40557 13.4869 3.48233 13.4869C1.5591 13.4869 0 14.9399 0 16.7323C0 18.5248 1.5591 19.9778 3.48233 19.9778Z" fill="#C6C7C8"/>
</g>
</g>
</svg>
