<svg width="21" height="20" viewBox="0 0 21 20" fill="none" xmlns="http://www.w3.org/2000/svg">
<g id="&#240;&#159;&#166;&#134; icon &#34;question mark circled&#34;">
<path id="Vector" fill-rule="evenodd" clip-rule="evenodd" d="M0.5 10C0.5 4.47717 4.97717 0 10.5 0C16.0229 0 20.5 4.47717 20.5 10C20.5 15.5229 16.0229 20.0001 10.5 20.0001C4.97717 20.0001 0.5 15.5229 0.5 10ZM10.5 1.43443C5.76938 1.43443 1.93444 5.26939 1.93444 10C1.93444 14.7306 5.76938 18.5657 10.5 18.5657C15.2306 18.5657 19.0656 14.7306 19.0656 10C19.0656 5.26939 15.2306 1.43443 10.5 1.43443ZM11.6325 14.5302C11.6325 15.1557 11.1255 15.6627 10.5001 15.6627C9.87462 15.6627 9.36761 15.1557 9.36761 14.5302C9.36761 13.9048 9.87462 13.3978 10.5001 13.3978C11.1255 13.3978 11.6325 13.9048 11.6325 14.5302ZM8.31081 8.11303C8.31081 7.08946 9.19424 6.11237 10.5002 6.11237C11.8062 6.11237 12.6896 7.08946 12.6896 8.11303C12.6896 8.85468 12.2819 9.23358 11.579 9.66062C11.5005 9.70829 11.41 9.76083 11.3132 9.81705C11.0366 9.97769 10.7084 10.1683 10.4617 10.3605C10.0957 10.6457 9.66975 11.1057 9.66975 11.8124C9.66977 12.271 10.0416 12.6428 10.5002 12.6428C10.9568 12.6428 11.3273 12.2744 11.3307 11.8187L11.3315 11.8173C11.3446 11.7967 11.3834 11.748 11.4825 11.6707C11.6357 11.5513 11.8064 11.4524 12.0338 11.3207C12.1523 11.252 12.2864 11.1743 12.4413 11.0801C13.2483 10.5899 14.3505 9.77972 14.3505 8.11303C14.3505 6.11673 12.6671 4.45144 10.5002 4.45144C8.33336 4.45144 6.64989 6.11673 6.64989 8.11303C6.64989 8.57169 7.02171 8.94349 7.48035 8.94349C7.93901 8.94349 8.31081 8.57169 8.31081 8.11303Z" fill="#1E1F4B"/>
</g>
</svg>
