<svg width="23" height="22" viewBox="0 0 23 22" fill="none" xmlns="http://www.w3.org/2000/svg">
<g id="&#240;&#159;&#166;&#134; icon &#34;key&#34;">
<path id="Vector" fill-rule="evenodd" clip-rule="evenodd" d="M16.7893 0.143704C18.0584 0.401901 19.233 1.0005 20.1868 1.87514C21.1406 2.74979 21.8376 3.8674 22.2028 5.10783C22.5412 6.24518 22.5915 7.44851 22.3492 8.611C21.9989 10.2037 21.1173 11.6305 19.8489 12.6578C18.5804 13.6852 17.0001 14.2523 15.3667 14.2663C14.6774 14.2663 13.9913 14.1674 13.3319 13.9679L12.0729 15.4414L11.4765 15.7163H9.94217V18.0727L9.15532 18.8581H6.79478V21.2145L6.00793 22H1.28685L0.5 21.2145V17.5904L0.729759 17.0359L8.55731 9.22209C8.33517 8.50783 8.22892 7.7627 8.24258 7.01494C8.25692 5.96875 8.50228 4.93861 8.96118 3.99795C9.42007 3.05728 10.0812 2.22925 10.8974 1.57289C11.7137 0.916523 12.6649 0.447987 13.6833 0.200679C14.7017 -0.0466294 15.7623 -0.0650486 16.7893 0.143704ZM18.8634 11.4544C19.852 10.6553 20.5395 9.54473 20.8132 8.30467L20.8195 8.31252C21.0145 7.40579 20.9794 6.46479 20.7175 5.57503C20.4555 4.68527 19.975 3.87495 19.3196 3.21771C18.6641 2.56047 17.8546 2.07713 16.9644 1.81161C16.0743 1.5461 15.1318 1.50682 14.2226 1.69735C12.9964 1.96904 11.8964 2.64245 11.0979 3.61036C10.2994 4.57826 9.84825 5.78503 9.81627 7.0385C9.80053 7.75484 9.92643 8.4649 10.1924 9.12783L10.0193 9.98084L2.07369 17.9156V20.4291H5.22108V18.0727L6.00793 17.2872H8.36847V14.9308L9.15532 14.1454H11.1146L12.4931 12.5493L13.376 12.3294C14.0123 12.5776 14.6897 12.7044 15.373 12.7033C16.6446 12.6935 17.8752 12.2532 18.8634 11.4544ZM17.5447 7.1626C17.6688 6.99145 17.757 6.79707 17.8041 6.5911C17.8512 6.38512 17.8561 6.17178 17.8187 5.96384C17.7813 5.7559 17.7022 5.55763 17.5863 5.3809C17.4703 5.20416 17.3198 5.05259 17.1438 4.93525C16.9678 4.81791 16.7699 4.73722 16.562 4.698C16.354 4.65878 16.1403 4.66183 15.9335 4.70698C15.7267 4.75213 15.5312 4.83845 15.3587 4.96077C15.1861 5.08309 15.04 5.2389 14.9292 5.41887C14.716 5.76509 14.6455 6.18032 14.7325 6.57733C14.8195 6.97435 15.0572 7.32226 15.3958 7.54798C15.7344 7.77369 16.1474 7.85965 16.5481 7.78779C16.9488 7.71593 17.306 7.49184 17.5447 7.1626Z" fill="#1E1F4B"/>
</g>
</svg>
