<svg width="25" height="24" viewBox="0 0 25 24" fill="none" xmlns="http://www.w3.org/2000/svg">
<g id="Group">
<g id="Group_2">
<path id="Path" d="M14.03 7.52L9.96997 10.56" stroke="#45D3B1" stroke-width="1.5" stroke-linecap="round" stroke-linejoin="round"/>
<path id="Path_2" d="M16.9048 4.64216C17.6983 5.43571 17.6983 6.7223 16.9048 7.51584C16.1112 8.30939 14.8246 8.30939 14.0311 7.51584C13.2375 6.7223 13.2375 5.4357 14.0311 4.64216C14.8246 3.84862 16.1112 3.84862 16.9048 4.64216" stroke="#45D3B1" stroke-width="1.5" stroke-linecap="round" stroke-linejoin="round"/>
<path id="Path_3" d="M14.03 16.48L9.96997 13.44" stroke="#45D3B1" stroke-width="1.5" stroke-linecap="round" stroke-linejoin="round"/>
<path id="Path_4" d="M16.9048 16.4842C17.6983 17.2777 17.6983 18.5643 16.9048 19.3579C16.1112 20.1514 14.8246 20.1514 14.0311 19.3579C13.2375 18.5643 13.2375 17.2777 14.0311 16.4842C14.8246 15.6907 16.1112 15.6907 16.9048 16.4842" stroke="#45D3B1" stroke-width="1.5" stroke-linecap="round" stroke-linejoin="round"/>
<path id="Path_5" d="M9.96542 10.5646C10.7582 11.3574 10.7582 12.6427 9.96542 13.4355C9.17266 14.2282 7.88733 14.2282 7.09457 13.4355C6.30181 12.6427 6.30181 11.3574 7.09457 10.5646C7.88734 9.77184 9.17266 9.77184 9.96542 10.5646" stroke="#45D3B1" stroke-width="1.5" stroke-linecap="round" stroke-linejoin="round"/>
</g>
</g>
</svg>
